<svg xmlns="http://www.w3.org/2000/svg" width="15" height="15" fill="none" viewBox="0 0 15 15"><path stroke="#fff" stroke-linecap="round" stroke-linejoin="round" stroke-miterlimit="10" stroke-width=".6" d="M9.7 4.42c1.701 0 3.08-.493 3.08-1.1s-1.379-1.1-3.08-1.1-3.08.492-3.08 1.1c0 .607 1.379 1.1 3.08 1.1"/><path stroke="#fff" stroke-linecap="round" stroke-linejoin="round" stroke-miterlimit="10" stroke-width=".6" d="M6.62 3.54v1.32c0 .607 1.379 1.1 3.08 1.1s3.08-.493 3.08-1.1V3.54"/><path stroke="#fff" stroke-linecap="round" stroke-linejoin="round" stroke-miterlimit="10" stroke-width=".6" d="M8.281 7.377c.425.078.907.123 1.419.123 1.702 0 3.08-.493 3.08-1.1V5.08m-6.16 0v.94"/><path stroke="#fff" stroke-linecap="round" stroke-linejoin="round" stroke-miterlimit="10" stroke-width=".6" d="M8.386 8.935c.398.067.844.105 1.314.105 1.702 0 3.08-.492 3.08-1.1V6.62"/><path stroke="#fff" stroke-linecap="round" stroke-linejoin="round" stroke-miterlimit="10" stroke-width=".6" d="M8.369 10.472c.402.07.854.108 1.331.108 1.702 0 3.08-.492 3.08-1.1V8.16m-7.48 0c1.701 0 3.08-.493 3.08-1.1s-1.379-1.1-3.08-1.1-3.08.492-3.08 1.1c0 .607 1.379 1.1 3.08 1.1"/><path stroke="#fff" stroke-linecap="round" stroke-linejoin="round" stroke-miterlimit="10" stroke-width=".6" d="M2.22 7.28V8.6c0 .608 1.378 1.1 3.08 1.1 1.701 0 3.08-.492 3.08-1.1V7.28"/><path stroke="#fff" stroke-linecap="round" stroke-linejoin="round" stroke-miterlimit="10" stroke-width=".6" d="M2.22 8.82v1.32c0 .608 1.378 1.1 3.08 1.1 1.701 0 3.08-.492 3.08-1.1V8.82"/><path stroke="#fff" stroke-linecap="round" stroke-linejoin="round" stroke-miterlimit="10" stroke-width=".6" d="M2.22 10.36v1.32c0 .608 1.378 1.1 3.08 1.1 1.701 0 3.08-.492 3.08-1.1v-1.32"/></svg>